<svg width="1242" height="1247" xmlns="http://www.w3.org/2000/svg" xmlns:xlink="http://www.w3.org/1999/xlink" xml:space="preserve" overflow="hidden"><g transform="translate(-678 -412)"><g><path d="M682.5 498.814C682.5 455.01 718.01 419.5 761.813 419.5L1834.19 419.5C1877.99 419.5 1913.5 455.01 1913.5 498.814L1913.5 1571.19C1913.5 1614.99 1877.99 1650.5 1834.19 1650.5L761.813 1650.5C718.01 1650.5 682.5 1614.99 682.5 1571.19Z" stroke="#FFFFFF" stroke-width="6.875" stroke-linecap="butt" stroke-linejoin="miter" stroke-miterlimit="8" stroke-opacity="1" fill="#156082" fill-rule="evenodd" fill-opacity="1"/><g><g><g><path d="M1691.87 752.362C1680.96 747.642 1668.29 752.659 1663.57 763.568 1663.5 763.741 1663.42 763.915 1663.35 764.091L1636.35 829.191C1633.94 829.034 1631.54 829.034 1629.14 829.191 1595.03 829.191 1565.43 856.738 1547.25 900.425L1510.23 989.844C1505.71 1000.68 1502.35 1011.97 1500.23 1023.52 1483.74 1016.57 1466.04 1012.98 1448.15 1012.98L1286.74 1012.98C1269.97 1014.31 1253.36 1017.23 1237.13 1021.7 1232.94 991.458 1203.02 969.938 1200.66 968.001 1219.06 953.821 1236.59 938.548 1253.17 922.269 1295.24 880.303 1300.84 829.191 1268.45 793.144 1255.92 777.399 1236.13 769.258 1216.15 771.623 1209.29 752.026 1194.31 736.34 1175.05 728.581 1166.13 724.74 1156.56 722.657 1146.85 722.448 1071.53 722.448 1050.01 840.813 1039.25 875.138 1030.75 873.955 931.646 862.333 911.847 937.656L867.083 937.656C855.198 937.656 845.562 947.291 845.562 959.177 845.562 971.063 855.198 980.698 867.083 980.698L915.075 980.698C927.772 1013.73 974.688 1056.02 1064.54 1024.82 1065.29 1046.34 1093.05 1099.06 1129.1 1113.37 1093.05 1131.34 1061.63 1209.46 1059.05 1215.71 1036.02 1269.51 1049.36 1322.13 1094.13 1340.63 1103.09 1344.4 1112.71 1346.37 1122.43 1346.44 1157.61 1346.55 1189.9 1320.3 1207.22 1277.36 1209.8 1271.23 1243.7 1206.67 1232.29 1163.62 1249.48 1171.03 1268.03 1174.69 1286.74 1174.39L1448.15 1174.39C1458.71 1174.41 1469.24 1173.29 1479.57 1171.05 1476.75 1193.64 1480.21 1216.58 1489.57 1237.33 1492.16 1243.57 1503.56 1270.8 1506.04 1277.15 1523.47 1320.3 1555.75 1346.55 1591.04 1346.55 1600.74 1346.54 1610.33 1344.56 1619.24 1340.74 1664 1322.23 1677.34 1270.15 1654.42 1216.03 1651.73 1209.68 1640.43 1182.24 1637.96 1176 1628.63 1150.47 1610.71 1128.98 1587.28 1115.2 1613.21 1106.92 1635.38 1082.06 1649.8 1047.2 1651.95 1042.25 1684.88 962.728 1686.92 957.778 1705.75 912.262 1703.28 870.296 1676.16 846.623L1703.49 780.662C1708.13 769.718 1703.02 757.087 1692.08 752.448 1692.01 752.419 1691.94 752.39 1691.87 752.362ZM1216.47 814.234C1233.64 814.62 1247.25 828.851 1246.87 846.022 1246.84 847.159 1246.75 848.293 1246.6 849.421 1243.25 865.821 1234.68 880.695 1222.18 891.817L1199.26 914.629C1187.19 928.449 1170.28 937.114 1152.02 938.84 1143.9 939.05 1136.08 935.803 1130.5 929.909 1112.85 911.508 1125.33 882.24 1146.85 861.365L1169.77 838.553C1181.73 824.866 1198.4 816.184 1216.47 814.234ZM1146.85 765.49C1150.97 765.54 1155.03 766.418 1158.8 768.072 1165.61 770.602 1171.19 775.646 1174.4 782.168 1125.33 797.771 1087.89 866.638 1082.29 885.361 1071.53 862.333 1093.05 765.49 1146.85 765.49ZM1014.07 991.458 1009.55 991.458C981.251 991.458 953.167 979.299 953.167 953.797 953.167 928.295 981.036 916.673 1009.34 916.135L1014.39 916.135C1042.8 916.135 1071.53 927.864 1071.53 953.797 1071.53 979.729 1042.69 991.458 1014.07 991.458ZM1124.47 1057.42C1114.49 1048.31 1108.36 1035.72 1107.36 1022.23 1108.42 1003.71 1123.17 988.916 1141.69 987.8 1155.39 988.733 1168.2 994.943 1177.41 1005.12L1179.78 1007.6C1195.71 1023.63 1205.82 1047.52 1186.45 1066.89 1180.42 1073.64 1171.83 1077.54 1162.78 1077.65 1149.21 1076.75 1136.52 1070.61 1127.38 1060.54 1126.47 1059.45 1125.5 1058.41 1124.47 1057.42ZM1184.19 1220.55C1181.5 1226.79 1169.88 1254.66 1167.3 1261.11 1156.54 1286.83 1139.32 1303.4 1122.43 1303.4 1118.35 1303.35 1114.32 1302.47 1110.59 1300.82 1103.08 1297.94 1097.11 1292.05 1094.13 1284.57 1088.95 1267.27 1090.56 1248.64 1098.65 1232.49 1101.34 1226.14 1112.85 1198.38 1115.33 1192.14 1126.09 1166.1 1143.73 1149.1 1160.63 1149.1 1164.66 1149.11 1168.66 1149.95 1172.36 1151.57 1179.84 1154.41 1185.78 1160.27 1188.71 1167.71 1194.06 1185.25 1192.44 1204.17 1184.19 1220.55ZM1286.74 1131.34C1259.41 1131.34 1227.56 1121.44 1227.56 1093.68 1227.56 1065.92 1259.41 1056.02 1286.74 1056.02L1448.15 1056.02C1477.63 1056.02 1507.33 1067.64 1507.33 1093.68 1507.33 1119.72 1477.63 1131.34 1448.15 1131.34ZM1614.82 1232.71C1622.89 1248.79 1624.47 1267.36 1619.24 1284.57 1616.3 1292.1 1610.32 1298.05 1602.77 1300.93 1599.06 1302.5 1595.08 1303.34 1591.04 1303.4 1574.04 1303.4 1556.4 1286.72 1545.96 1261.01 1543.38 1254.55 1531.86 1226.9 1529.28 1220.66 1521.06 1204.35 1519.41 1185.52 1524.65 1168.04 1527.55 1160.54 1533.5 1154.64 1541.01 1151.79 1544.72 1150.22 1548.71 1149.38 1552.74 1149.31 1569.74 1149.31 1587.49 1166.1 1598.04 1192.36ZM1647.11 941.1 1610.09 1030.63C1599.33 1057.74 1582.22 1075.17 1567.8 1075.17 1564.1 1075.16 1560.44 1074.4 1557.04 1072.91 1549.19 1070.17 1543.46 1063.36 1542.08 1055.16 1539.78 1038.32 1542.51 1021.17 1549.94 1005.88L1559.19 983.388 1588.03 916.135C1598.79 889.019 1615.79 871.48 1630.1 871.48 1633.8 871.52 1637.46 872.287 1640.86 873.739 1648.73 876.496 1654.49 883.286 1655.93 891.494 1657.94 908.538 1654.87 925.794 1647.11 941.1Z" fill="#FFFFFF" fill-rule="nonzero" fill-opacity="1"/></g></g></g></g></g></svg>